<mxfile host="app.diagrams.net" modified="2024-06-17T17:34:14.204Z" agent="Mozilla/5.0 (Windows NT 10.0; Win64; x64) AppleWebKit/537.36 (KHTML, like Gecko) Chrome/125.0.0.0 Safari/537.36" etag="_sL23SvXaoWh07DsThnY" version="24.5.5" type="github">
  <diagram name="Page-1" id="zJM9wbermmzYjEvXcKUF">
    <mxGraphModel dx="1173" dy="624" grid="1" gridSize="10" guides="1" tooltips="1" connect="1" arrows="1" fold="1" page="1" pageScale="1" pageWidth="1169" pageHeight="827" math="0" shadow="0">
      <root>
        <mxCell id="0" />
        <mxCell id="1" parent="0" />
        <mxCell id="L2gdLYX7dLDbNL_QwcSE-1" value="" style="whiteSpace=wrap;html=1;aspect=fixed;" vertex="1" parent="1">
          <mxGeometry x="300" y="60" width="570" height="570" as="geometry" />
        </mxCell>
        <mxCell id="L2gdLYX7dLDbNL_QwcSE-11" style="edgeStyle=orthogonalEdgeStyle;rounded=0;orthogonalLoop=1;jettySize=auto;html=1;exitX=0.5;exitY=0.5;exitDx=0;exitDy=0;exitPerimeter=0;entryX=0;entryY=0.5;entryDx=0;entryDy=0;" edge="1" parent="1" source="L2gdLYX7dLDbNL_QwcSE-8" target="L2gdLYX7dLDbNL_QwcSE-9">
          <mxGeometry relative="1" as="geometry" />
        </mxCell>
        <mxCell id="L2gdLYX7dLDbNL_QwcSE-8" value="Actor" style="shape=umlActor;verticalLabelPosition=bottom;verticalAlign=top;html=1;" vertex="1" parent="1">
          <mxGeometry x="140" y="150" width="30" height="60" as="geometry" />
        </mxCell>
        <mxCell id="L2gdLYX7dLDbNL_QwcSE-9" value="&lt;b&gt;Verify Login&lt;/b&gt;" style="ellipse;whiteSpace=wrap;html=1;" vertex="1" parent="1">
          <mxGeometry x="350" y="100" width="90" height="40" as="geometry" />
        </mxCell>
      </root>
    </mxGraphModel>
  </diagram>
</mxfile>
